<svg width="139" height="18" viewBox="0 0 139 18" fill="none" xmlns="http://www.w3.org/2000/svg">
<path d="M3.896 18C3.24 18 2.64 17.84 2.096 17.52C1.568 17.2 1.144 16.776 0.824 16.248C0.504 15.704 0.344 15.104 0.344 14.448V4.272C0.344 3.616 0.504 3.024 0.824 2.496C1.144 1.952 1.568 1.52 2.096 1.2C2.64 0.879999 3.24 0.719999 3.896 0.719999H17.576V4.464H4.856C4.6 4.464 4.4 4.528 4.256 4.656C4.128 4.784 4.064 4.984 4.064 5.256V13.464C4.064 13.72 4.128 13.92 4.256 14.064C4.4 14.192 4.6 14.256 4.856 14.256H17.576V18H3.896ZM23.5824 18C22.9424 18 22.3504 17.84 21.8064 17.52C21.2624 17.2 20.8304 16.768 20.5104 16.224C20.1904 15.68 20.0304 15.088 20.0304 14.448V4.272C20.0304 3.616 20.1904 3.024 20.5104 2.496C20.8304 1.952 21.2624 1.52 21.8064 1.2C22.3504 0.879999 22.9424 0.719999 23.5824 0.719999H33.7584C34.3984 0.719999 34.9824 0.879999 35.5104 1.2C36.0544 1.52 36.4864 1.952 36.8064 2.496C37.1424 3.024 37.3104 3.616 37.3104 4.272V14.448C37.3104 15.088 37.1424 15.68 36.8064 16.224C36.4864 16.768 36.0544 17.2 35.5104 17.52C34.9824 17.84 34.3984 18 33.7584 18H23.5824ZM23.7504 14.256H33.5424V4.464H23.7504V14.256ZM39.9534 18V0.719999H43.7934L49.6494 7.704L55.4814 0.719999H59.3454V18H55.6014V6.408L49.6494 13.512L43.6734 6.432V18H39.9534ZM62.219 18V0.743999H75.923C76.579 0.743999 77.171 0.903999 77.699 1.224C78.243 1.544 78.675 1.976 78.995 2.52C79.331 3.064 79.499 3.656 79.499 4.296V8.76C79.499 9.4 79.331 9.992 78.995 10.536C78.675 11.08 78.243 11.512 77.699 11.832C77.171 12.152 76.579 12.312 75.923 12.312L65.939 12.336V18H62.219ZM65.939 8.568H75.731V4.464H65.939V8.568ZM81.2514 18V4.272C81.2514 3.616 81.4114 3.024 81.7314 2.496C82.0514 1.952 82.4834 1.52 83.0274 1.2C83.5714 0.879999 84.1634 0.719999 84.8034 0.719999H94.9554C95.6114 0.719999 96.2034 0.879999 96.7314 1.2C97.2754 1.52 97.7074 1.952 98.0274 2.496C98.3634 3.024 98.5314 3.616 98.5314 4.272V18H94.7634V12.432H84.9714V18H81.2514ZM84.9714 8.688H94.7634V4.464H84.9714V8.688ZM104.77 18C104.13 18 103.538 17.84 102.994 17.52C102.45 17.2 102.018 16.768 101.698 16.224C101.378 15.68 101.218 15.088 101.218 14.448V12.84H104.938V14.256H114.73V11.232H104.77C104.13 11.232 103.538 11.072 102.994 10.752C102.45 10.432 102.018 10.008 101.698 9.48C101.378 8.936 101.218 8.336 101.218 7.68V4.272C101.218 3.616 101.378 3.024 101.698 2.496C102.018 1.952 102.45 1.52 102.994 1.2C103.538 0.879999 104.13 0.719999 104.77 0.719999H114.946C115.586 0.719999 116.17 0.879999 116.698 1.2C117.242 1.52 117.674 1.952 117.994 2.496C118.33 3.024 118.498 3.616 118.498 4.272V5.88H114.73V4.464H104.938V7.488H114.946C115.586 7.488 116.17 7.648 116.698 7.968C117.242 8.288 117.674 8.72 117.994 9.264C118.33 9.792 118.498 10.384 118.498 11.04V14.448C118.498 15.088 118.33 15.68 117.994 16.224C117.674 16.768 117.242 17.2 116.698 17.52C116.17 17.84 115.586 18 114.946 18H104.77ZM124.645 18C124.005 18 123.413 17.84 122.869 17.52C122.325 17.2 121.893 16.768 121.573 16.224C121.253 15.68 121.093 15.088 121.093 14.448V12.84H124.813V14.256H134.605V11.232H124.645C124.005 11.232 123.413 11.072 122.869 10.752C122.325 10.432 121.893 10.008 121.573 9.48C121.253 8.936 121.093 8.336 121.093 7.68V4.272C121.093 3.616 121.253 3.024 121.573 2.496C121.893 1.952 122.325 1.52 122.869 1.2C123.413 0.879999 124.005 0.719999 124.645 0.719999H134.821C135.461 0.719999 136.045 0.879999 136.573 1.2C137.117 1.52 137.549 1.952 137.869 2.496C138.205 3.024 138.373 3.616 138.373 4.272V5.88H134.605V4.464H124.813V7.488H134.821C135.461 7.488 136.045 7.648 136.573 7.968C137.117 8.288 137.549 8.72 137.869 9.264C138.205 9.792 138.373 10.384 138.373 11.04V14.448C138.373 15.088 138.205 15.68 137.869 16.224C137.549 16.768 137.117 17.2 136.573 17.52C136.045 17.84 135.461 18 134.821 18H124.645Z" fill="white"/>
</svg>
